<svg width="48" height="48" viewBox="0 0 48 48" fill="none" xmlns="http://www.w3.org/2000/svg">
  <path
    d="M28.0089 33.9999C27.7528 34.0006 27.4997 33.9535 27.2682 33.8621C27.0368 33.7706 26.8329 33.6371 26.6715 33.4714L18.39 24.9008C18.1379 24.6452 18 24.3246 18 23.9937C18 23.6628 18.1379 23.3422 18.39 23.0866L26.963 14.516C27.2541 14.2243 27.6723 14.0409 28.1256 14.006C28.579 13.9712 29.0305 14.0879 29.3806 14.3303C29.7307 14.5728 29.9509 14.9212 29.9927 15.2989C30.0345 15.6766 29.8945 16.0527 29.6035 16.3444L21.9393 24.0008L29.3463 31.6573C29.556 31.8669 29.6892 32.1223 29.7301 32.393C29.771 32.6638 29.718 32.9386 29.5773 33.1851C29.4367 33.4315 29.2142 33.6392 28.9362 33.7836C28.6583 33.928 28.3365 34.0031 28.0089 33.9999Z"
    fill="#121212" />
</svg>