<svg width="48" height="48" viewBox="0 0 48 48" fill="none" xmlns="http://www.w3.org/2000/svg">
  <path
    d="M14 19C14 18.337 14.2634 17.7011 14.7322 17.2322C15.2011 16.7634 15.837 16.5 16.5 16.5H31.5C32.163 16.5 32.7989 16.7634 33.2678 17.2322C33.7366 17.7011 34 18.337 34 19V29C34 29.663 33.7366 30.2989 33.2678 30.7678C32.7989 31.2366 32.163 31.5 31.5 31.5H16.5C15.837 31.5 15.2011 31.2366 14.7322 30.7678C14.2634 30.2989 14 29.663 14 29V19ZM16.5 17.75C16.1685 17.75 15.8505 17.8817 15.6161 18.1161C15.3817 18.3505 15.25 18.6685 15.25 19V20.25H32.75V19C32.75 18.6685 32.6183 18.3505 32.3839 18.1161C32.1495 17.8817 31.8315 17.75 31.5 17.75H16.5ZM32.75 22.75H15.25V29C15.25 29.3315 15.3817 29.6495 15.6161 29.8839C15.8505 30.1183 16.1685 30.25 16.5 30.25H31.5C31.8315 30.25 32.1495 30.1183 32.3839 29.8839C32.6183 29.6495 32.75 29.3315 32.75 29V22.75Z"
    fill="#121212" />
  <path
    d="M16.5 26.5C16.5 26.1685 16.6317 25.8505 16.8661 25.6161C17.1005 25.3817 17.4185 25.25 17.75 25.25H19C19.3315 25.25 19.6495 25.3817 19.8839 25.6161C20.1183 25.8505 20.25 26.1685 20.25 26.5V27.75C20.25 28.0815 20.1183 28.3995 19.8839 28.6339C19.6495 28.8683 19.3315 29 19 29H17.75C17.4185 29 17.1005 28.8683 16.8661 28.6339C16.6317 28.3995 16.5 28.0815 16.5 27.75V26.5Z"
    fill="#121212" />
</svg>