<svg width="48" height="48" viewBox="0 0 48 48" fill="none" xmlns="http://www.w3.org/2000/svg">
  <path d="M24 21V26H29V24H26V21H24Z" fill="#121212" />
  <path
    d="M33.292 20.4967C32.8409 19.4268 32.1861 18.4547 31.364 17.6347C30.1195 16.3902 28.5377 15.5377 26.814 15.1826C25.6176 14.9391 24.3844 14.9391 23.188 15.1826C21.4627 15.5355 19.8795 16.3887 18.636 17.6357C17.8159 18.4566 17.1613 19.4276 16.708 20.4957C16.2391 21.6044 15.9983 22.7961 16 23.9998L16.001 24.0248H14L17 27.9999L20 24.0248H18.001L18 23.9998C17.9971 22.6052 18.4135 21.2418 19.195 20.0867C19.6991 19.3414 20.3409 18.6992 21.086 18.1947C21.8439 17.6841 22.6941 17.3261 23.589 17.1407C25.4075 16.7668 27.3001 17.1303 28.8507 18.1514C30.4013 19.1724 31.483 20.7674 31.858 22.5858C32.0466 23.5177 32.0466 24.4779 31.858 25.4098C31.675 26.3055 31.3168 27.1562 30.804 27.9129C30.554 28.2839 30.267 28.6329 29.95 28.9489C29.3112 29.587 28.5558 30.0965 27.725 30.4499C27.3018 30.6288 26.862 30.7655 26.412 30.858C25.4804 31.0465 24.5205 31.0465 23.589 30.858C22.6943 30.6745 21.8445 30.3167 21.088 29.8049C20.7159 29.5535 20.3687 29.2672 20.051 28.9499L18.637 30.3639C19.4721 31.2002 20.464 31.8635 21.5559 32.3159C22.6478 32.7682 23.8181 33.0007 25 33C26.203 32.9995 27.3939 32.7592 28.503 32.293C30.1106 31.6128 31.486 30.4802 32.462 29.0329C33.4664 27.5468 34.0022 25.7936 34 23.9998C34.0025 22.7963 33.7617 21.6048 33.292 20.4967Z"
    fill="#121212" />
</svg>