<svg width="48" height="48" viewBox="0 0 48 48" fill="none" xmlns="http://www.w3.org/2000/svg">
  <path
    d="M34 23.2857H29.6643C29.5039 22.0289 28.9308 20.8609 28.0349 19.9651C27.1391 19.0692 25.9711 18.4961 24.7143 18.3357V14H23.2857V18.3357C22.0289 18.4961 20.8609 19.0692 19.9651 19.9651C19.0692 20.8609 18.4961 22.0289 18.3357 23.2857H14V24.7143H18.3357C18.4961 25.9711 19.0692 27.1391 19.9651 28.0349C20.8609 28.9308 22.0289 29.5039 23.2857 29.6643V34H24.7143V29.6643C25.9711 29.5039 27.1391 28.9308 28.0349 28.0349C28.9308 27.1391 29.5039 25.9711 29.6643 24.7143H34V23.2857ZM24 28.2857C23.1524 28.2857 22.3238 28.0344 21.619 27.5634C20.9142 27.0925 20.3649 26.4232 20.0405 25.6401C19.7161 24.857 19.6313 23.9952 19.7966 23.1639C19.962 22.3326 20.3702 21.5689 20.9695 20.9695C21.5689 20.3702 22.3326 19.962 23.1639 19.7966C23.9952 19.6313 24.857 19.7161 25.6401 20.0405C26.4232 20.3649 27.0925 20.9142 27.5634 21.619C28.0344 22.3238 28.2857 23.1524 28.2857 24C28.2844 25.1362 27.8324 26.2256 27.029 27.029C26.2256 27.8324 25.1362 28.2844 24 28.2857Z"
    fill="#121212" />
</svg>