<svg width="48" height="48" viewBox="0 0 48 48" fill="none" xmlns="http://www.w3.org/2000/svg">
  <path
    d="M29.8335 19.8333H18.1668C17.7066 19.8333 17.3335 20.2064 17.3335 20.6667V31.5C17.3335 31.9602 17.7066 32.3333 18.1668 32.3333H29.8335C30.2937 32.3333 30.6668 31.9602 30.6668 31.5V20.6667C30.6668 20.2064 30.2937 19.8333 29.8335 19.8333Z"
    stroke="#121212" stroke-width="1.5" stroke-linecap="round" stroke-linejoin="round" />
  <path
    d="M21.0835 21.5V18.5833C21.0835 18.2003 21.1589 17.821 21.3055 17.4672C21.4521 17.1133 21.6669 16.7918 21.9378 16.5209C22.2086 16.2501 22.5301 16.0353 22.884 15.8887C23.2379 15.7421 23.6171 15.6667 24.0002 15.6667C24.3832 15.6667 24.7625 15.7421 25.1163 15.8887C25.4702 16.0353 25.7917 16.2501 26.0626 16.5209C26.3334 16.7918 26.5482 17.1133 26.6948 17.4672C26.8414 17.821 26.9168 18.2003 26.9168 18.5833V21.5"
    stroke="#121212" stroke-width="1.5" stroke-linecap="round" stroke-linejoin="round" />
</svg>