<svg width="48" height="48" viewBox="0 0 48 48" fill="none" xmlns="http://www.w3.org/2000/svg">
  <path
    d="M24.0037 14C22.1347 13.9974 20.3024 14.5198 18.7151 15.5077C17.1279 16.4955 15.8493 17.9093 15.0247 19.5883C14.2002 21.2674 13.8627 23.1442 14.0507 25.0057C14.2386 26.8671 14.9445 28.6384 16.088 30.1183C17.2316 31.5982 18.7669 32.7273 20.5196 33.3772C22.2722 34.0271 24.1719 34.1719 26.0026 33.795C27.8333 33.4181 29.5217 32.5346 30.8759 31.245C32.23 29.9555 33.1956 28.3115 33.6628 26.5H31.0642C30.6063 27.7965 29.8011 28.942 28.7366 29.8113C27.6721 30.6806 26.3894 31.2402 25.0286 31.429C23.6679 31.6178 22.2815 31.4284 21.021 30.8816C19.7605 30.3348 18.6744 29.4517 17.8815 28.3287C17.0886 27.2057 16.6195 25.8861 16.5253 24.5142C16.4311 23.1423 16.7155 21.7709 17.3475 20.5499C17.9794 19.3289 18.9346 18.3053 20.1085 17.591C21.2824 16.8768 22.63 16.4994 24.0037 16.5C24.9863 16.5014 25.9588 16.699 26.8643 17.081C27.7698 17.463 28.59 18.0219 29.2772 18.725L25.2587 22.75H34V14L31.0642 16.9375C30.1391 16.0059 29.039 15.2667 27.8272 14.7625C26.6154 14.2584 25.316 13.9992 24.0037 14Z"
    fill="#121212" />
</svg>