<svg width="48" height="48" viewBox="0 0 48 48" fill="none" xmlns="http://www.w3.org/2000/svg">
  <path
    d="M31.5624 24.5225V24V23.4707L32.8824 22.3157C33.1257 22.1012 33.2854 21.8076 33.3332 21.4868C33.381 21.166 33.3138 20.8386 33.1436 20.5625L31.5211 17.8125C31.4006 17.6037 31.2272 17.4303 31.0184 17.3096C30.8097 17.1889 30.5729 17.1253 30.3317 17.125C30.1823 17.1239 30.0337 17.1471 29.8917 17.1938L28.2211 17.7575C27.9327 17.5659 27.6318 17.3936 27.3205 17.2419L26.9699 15.5094C26.907 15.1929 26.7348 14.9086 26.4834 14.7062C26.2321 14.5038 25.9175 14.3964 25.5949 14.4025H22.3774C22.0547 14.3964 21.7402 14.5038 21.4888 14.7062C21.2374 14.9086 21.0652 15.1929 21.0024 15.5094L20.6517 17.2419C20.3382 17.3936 20.035 17.5658 19.7442 17.7575L18.108 17.1663C17.9645 17.1289 17.8159 17.115 17.668 17.125C17.4269 17.1253 17.1901 17.1889 16.9813 17.3096C16.7725 17.4303 16.5992 17.6037 16.4786 17.8125L14.8561 20.5625C14.6956 20.8382 14.636 21.1611 14.6874 21.4759C14.7389 21.7907 14.8981 22.0779 15.138 22.2882L16.4374 23.4775V24.5294L15.138 25.6844C14.8914 25.8962 14.7277 26.1884 14.6761 26.5094C14.6245 26.8303 14.6883 27.1591 14.8561 27.4375L16.4786 30.1875C16.5992 30.3964 16.7725 30.5698 16.9813 30.6905C17.1901 30.8111 17.4269 30.8748 17.668 30.875C17.8174 30.8762 17.966 30.853 18.108 30.8063L19.7786 30.2425C20.0671 30.4342 20.3679 30.6065 20.6792 30.7582L21.0299 32.4907C21.0927 32.8072 21.2649 33.0915 21.5163 33.2939C21.7677 33.4962 22.0822 33.6037 22.4049 33.5975H25.6499C25.9725 33.6037 26.2871 33.4962 26.5384 33.2939C26.7898 33.0915 26.962 32.8072 27.0249 32.4907L27.3755 30.7582C27.689 30.6065 27.9922 30.4342 28.283 30.2425L29.9467 30.8063C30.0887 30.853 30.2373 30.8762 30.3867 30.875C30.6279 30.8748 30.8647 30.8111 31.0734 30.6905C31.2822 30.5698 31.4556 30.3964 31.5761 30.1875L33.1436 27.4375C33.3041 27.1619 33.3637 26.839 33.3123 26.5241C33.2609 26.2093 33.1016 25.9222 32.8617 25.7119L31.5624 24.5225ZM30.3317 29.5L27.9736 28.7025C27.4216 29.1701 26.7907 29.5356 26.1105 29.7819L25.6224 32.25H22.3774L21.8892 29.8094C21.2144 29.5561 20.5869 29.1912 20.033 28.73L17.668 29.5L16.0455 26.75L17.9155 25.1C17.7884 24.3884 17.7884 23.6598 17.9155 22.9482L16.0455 21.25L17.668 18.5L20.0261 19.2975C20.5781 18.83 21.209 18.4645 21.8892 18.2182L22.3774 15.75H25.6224L26.1105 18.1907C26.7853 18.444 27.4128 18.8088 27.9667 19.27L30.3317 18.5L31.9542 21.25L30.0842 22.9C30.2114 23.6117 30.2114 24.3403 30.0842 25.0519L31.9542 26.75L30.3317 29.5Z"
    fill="#121212" />
  <path
    d="M24 28.125C23.1842 28.125 22.3866 27.8831 21.7083 27.4298C21.0299 26.9766 20.5012 26.3323 20.189 25.5786C19.8768 24.8248 19.7951 23.9954 19.9543 23.1953C20.1134 22.3951 20.5063 21.6601 21.0832 21.0832C21.6601 20.5063 22.3951 20.1134 23.1953 19.9543C23.9954 19.7951 24.8248 19.8768 25.5786 20.189C26.3323 20.5012 26.9766 21.0299 27.4298 21.7083C27.8831 22.3866 28.125 23.1842 28.125 24C28.1305 24.5432 28.0276 25.0821 27.8222 25.5851C27.6169 26.088 27.3133 26.545 26.9291 26.9291C26.545 27.3133 26.088 27.6169 25.5851 27.8222C25.0821 28.0276 24.5432 28.1305 24 28.125ZM24 21.25C23.6366 21.2415 23.2752 21.3069 22.9377 21.4421C22.6002 21.5773 22.2937 21.7795 22.0366 22.0366C21.7795 22.2937 21.5773 22.6002 21.4421 22.9377C21.3069 23.2752 21.2415 23.6366 21.25 24C21.2415 24.3635 21.3069 24.7248 21.4421 25.0623C21.5773 25.3998 21.7795 25.7063 22.0366 25.9634C22.2937 26.2205 22.6002 26.4227 22.9377 26.5579C23.2752 26.6931 23.6366 26.7585 24 26.75C24.3635 26.7585 24.7248 26.6931 25.0623 26.5579C25.3998 26.4227 25.7063 26.2205 25.9634 25.9634C26.2205 25.7063 26.4227 25.3998 26.5579 25.0623C26.6931 24.7248 26.7585 24.3635 26.75 24C26.7585 23.6366 26.6931 23.2752 26.5579 22.9377C26.4227 22.6002 26.2205 22.2937 25.9634 22.0366C25.7063 21.7795 25.3998 21.5773 25.0623 21.4421C24.7248 21.3069 24.3635 21.2415 24 21.25Z"
    fill="#121212" />
</svg>