<svg width="48" height="48" viewBox="0 0 48 48" fill="none" xmlns="http://www.w3.org/2000/svg">
  <path
    d="M29.6295 28.4222L26.6175 25.4102L28.2134 23.8143C28.9303 23.1253 29.8172 22.6408 30.7781 22.4133C31.782 22.1472 32.6652 21.5305 33.2661 20.6763C33.8669 19.8221 33.9835 19.0165 34 18C33.9335 17.2574 33.7244 16.3118 33.2984 15.7083C32.8725 15.1048 32.2942 14.6263 31.6204 14.3198C30.9465 14.0133 30.527 13.9833 29.5 14C28.7545 14.0706 27.9899 14.2932 27.3678 14.7225C26.4907 15.3229 25.8593 16.2218 25.5958 17.2455C25.3816 18.1803 24.9165 19.0448 24.251 19.7449L22.6016 21.3943L19.5896 18.3823C19.3231 18.1164 18.9594 17.9697 18.5783 17.9744C18.1971 17.979 17.8297 18.1347 17.5566 18.4073L15.4987 20.4652C15.2261 20.7383 15.0704 21.1057 15.0658 21.4869C15.0611 21.868 15.2078 22.2317 15.4737 22.4982L14.4448 23.5272C14.1722 23.8002 14.0047 24.1189 14 24.5C13.9953 24.8811 14.1539 25.2936 14.4198 25.5601L22.4517 33.592C22.7182 33.858 23.0819 34.0047 23.463 34C23.8441 33.9953 24.2116 33.8396 24.4847 33.5671L25.5136 32.5381C25.7801 32.804 26.1438 32.9507 26.5249 32.946C26.9061 32.9414 27.2735 32.7857 27.5466 32.5131L29.6045 30.4552C29.8771 30.1821 30.0328 29.8147 30.0374 29.4335C30.0421 29.0524 29.8954 28.6887 29.6295 28.4222ZM28.1705 15.8956C28.5198 15.6538 28.916 15.4902 29.3312 15.4164C29.7465 15.3425 30.1706 15.3601 30.5738 15.468C30.977 15.5759 31.3495 15.7714 31.6651 16.0408C31.9806 16.3102 32.2316 16.647 32.4004 17.0274C32.5691 17.4079 32.6515 17.8227 32.6418 18.2428C32.632 18.6628 32.5304 19.0779 32.344 19.4589C32.1576 19.8398 31.891 20.1773 31.5629 20.4476C31.2348 20.7179 30.8533 20.9145 30.445 21.0235C29.4484 21.2736 28.5132 21.737 27.7046 22.3815L25.6334 20.3102C26.28 19.5055 26.7425 18.5711 26.9872 17.5749C27.1638 16.8931 27.5854 16.2948 28.1705 15.8956ZM26.6425 23.3773L25.6135 24.4063L23.6055 22.3983L24.6345 21.3693L26.6425 23.3773ZM23.4807 32.5631L15.4487 24.5311L16.4777 23.5022L24.5096 31.5341L23.4807 32.5631ZM16.5027 21.4692L18.5606 19.4113L28.6005 29.4512L26.5426 31.5091L16.5027 21.4692Z"
    fill="#121212" />
</svg>